# xmcd
#
# Track frame offsets:
#	150
#	12771
#	26932
#	43067
#	56975
#	74453
#	90886
#	108930
#	127223
#	143542
#	155813
#	168405
#	181030
#	196672
#
# Disc length: 2850 seconds
# Revision: 0
# Processed by: cddbd v1.5.2PL0 Copyright (c) Steve Scherf et al.
# Submitted via: dBpowerAMP V12.0
#
DISCID=bc0b200e
DTITLE=Tara Naysmith - What It Takes
DYEAR=2013
DGENRE=Country
TTITLE0=Loveable
TTITLE1=Something Thats Real
TTITLE2=Ive Heard That Voice Before
TTITLE3=Sweet Talker
TTITLE4=To Get Me To You
TTITLE5=What It Takes
TTITLE6=Take The Memories With You
TTITLE7=Little By Little
TTITLE8=Broken
TTITLE9=Listen
TTITLE10=Happy Days
TTITLE11=Tough Go Shopping
TTITLE12=Little Things
TTITLE13=Whats a Girl Supposed To Do
EXTD=
EXTT0=
EXTT1=
EXTT2=
EXTT3=
EXTT4=
EXTT5=
EXTT6=
EXTT7=
EXTT8=
EXTT9=
EXTT10=
EXTT11=
EXTT12=
EXTT13=
PLAYORDER=
